<?xml version="1.0" standalone="no"?><!DOCTYPE svg PUBLIC "-//W3C//DTD SVG 1.1//EN" "http://www.w3.org/Graphics/SVG/1.1/DTD/svg11.dtd"><svg t="1631882983592" class="icon" viewBox="0 0 1024 1024" version="1.1" xmlns="http://www.w3.org/2000/svg" p-id="12885" width="32" height="32" xmlns:xlink="http://www.w3.org/1999/xlink"><defs><style type="text/css"></style></defs><path d="M296.96 66.56c164.352-2.56 207.36 150.528 235.52 281.6 3.584-1.536 6.656-3.584 10.24-5.12 112.64-262.656 454.144 105.984 337.92 296.96h-5.12c-10.24-1.536-20.48-3.584-30.72-5.12-1.536-5.12-3.584-10.24-5.12-15.36-33.28-94.208-38.4-334.336-168.96-296.96-204.8 32.256-42.496 280.576-102.4 445.44-7.168 9.728-0.512 3.072-10.24 10.24-5.12 3.584-10.24 6.656-15.36 10.24-10.24-6.656-20.48-13.824-30.72-20.48 5.632-200.704-36.352-626.176-194.56-640-123.392 66.56-151.552 252.928-179.2 414.72-13.824 81.408 11.776 202.752-40.96 245.76l-30.72-15.36C60.416 465.408 110.08 184.32 296.96 66.56z" fill="#17B794" p-id="12886"></path><path d="M788.48 701.44c62.976-5.632 112.64-1.024 102.4 56.32-37.376 5.12-75.264 10.24-112.64 15.36 60.416 4.096 157.184 26.624 179.2 71.68 1.536 6.656 3.584 13.824 5.12 20.48-58.368 65.024-571.904 141.312-701.44 81.92-1.536-5.12-3.584-10.24-5.12-15.36 5.12-22.528 3.584-20.48 20.48-30.72 76.8-1.536 153.6-3.584 230.4-5.12 111.104-13.824 221.696-27.136 332.8-40.96-53.76-25.088-225.792-35.84-209.92-107.52 28.672-56.32 95.744-23.552 158.72-46.08z" fill="#17B794" p-id="12887"></path></svg>